<svg width="94" height="94" viewBox="0 0 94 94" fill="none" xmlns="http://www.w3.org/2000/svg">
<circle cx="47" cy="47" r="47" fill="url(#paint0_linear_52_2570)"/>
<path d="M55.3355 61.03C55.5047 61.2893 55.6006 61.5895 55.6132 61.8988C55.6258 62.2082 55.5546 62.5152 55.4072 62.7874C55.2597 63.0597 55.0415 63.287 54.7755 63.4455C54.5095 63.6039 54.2057 63.6876 53.8961 63.6876H22.198C21.8884 63.6876 21.5846 63.6039 21.3186 63.4455C21.0526 63.287 20.8344 63.0597 20.6869 62.7874C20.5395 62.5152 20.4683 62.2082 20.4809 61.8988C20.4935 61.5895 20.5895 61.2893 20.7586 61.03C23.1779 57.306 26.7366 54.464 30.9035 52.9282C28.5999 51.3947 26.8511 49.1605 25.9155 46.5561C24.9799 43.9517 24.9073 41.1153 25.7083 38.4665C26.5094 35.8176 28.1417 33.4968 30.3638 31.8474C32.5858 30.1979 35.2797 29.3074 38.0471 29.3074C40.8144 29.3074 43.5083 30.1979 45.7304 31.8474C47.9524 33.4968 49.5847 35.8176 50.3858 38.4665C51.1869 41.1153 51.1142 43.9517 50.1786 46.5561C49.2431 49.1605 47.4942 51.3947 45.1906 52.9282C49.3575 54.464 52.9162 57.306 55.3355 61.03ZM74.2225 60.9978C71.8024 57.2894 68.2517 54.4597 64.0969 52.9282C66.8163 51.0964 68.7355 48.2971 69.4638 45.1001C70.1921 41.9031 69.6747 38.5487 68.0169 35.7197C66.3592 32.8908 63.6857 30.7998 60.5407 29.8725C57.3956 28.9453 54.0154 29.2513 51.0881 30.7284C50.9761 30.7862 50.8783 30.8679 50.8014 30.9677C50.7246 31.0676 50.6706 31.183 50.6433 31.306C50.6161 31.429 50.6162 31.5565 50.6437 31.6795C50.6711 31.8024 50.7253 31.9178 50.8023 32.0175C52.9791 34.7327 54.2291 38.0736 54.3695 41.5508C54.5098 45.028 53.533 48.4587 51.5822 51.3405C51.4561 51.5289 51.4095 51.7594 51.4526 51.9819C51.4956 52.2044 51.6249 52.4009 51.8121 52.5286C54.3556 54.3038 56.533 56.5527 58.2252 59.1523C58.9076 60.1974 59.1864 61.4551 59.0094 62.6907C58.9894 62.8136 58.9965 62.9394 59.0299 63.0593C59.0634 63.1793 59.1226 63.2905 59.2033 63.3853C59.284 63.4801 59.3844 63.5562 59.4974 63.6084C59.6104 63.6606 59.7335 63.6877 59.858 63.6876H72.8131C73.1915 63.6877 73.5595 63.5629 73.8597 63.3326C74.16 63.1022 74.3759 62.7792 74.4738 62.4136C74.5336 62.1732 74.5421 61.9229 74.4988 61.6789C74.4554 61.435 74.3613 61.2029 74.2225 60.9978Z" fill="white"/>
<defs>
<linearGradient id="paint0_linear_52_2570" x1="47" y1="0" x2="47" y2="94" gradientUnits="userSpaceOnUse">
<stop stop-color="#355FC6"/>
<stop offset="0.0001" stop-color="#0542D9"/>
<stop offset="1" stop-color="#5300C8"/>
</linearGradient>
</defs>
</svg>
