<svg width="94" height="94" viewBox="0 0 94 94" fill="none" xmlns="http://www.w3.org/2000/svg">
<circle cx="47" cy="47" r="47" fill="url(#paint0_linear_52_2569)"/>
<g clip-path="url(#clip0_52_2569)">
<path d="M74.9996 46.7442C74.9996 47.2 74.8185 47.6372 74.4962 47.9595C74.1739 48.2819 73.7367 48.4629 73.2809 48.4629H69.8434V51.9004C69.8434 52.3563 69.6623 52.7935 69.34 53.1158C69.0176 53.4381 68.5805 53.6192 68.1246 53.6192C67.6688 53.6192 67.2316 53.4381 66.9093 53.1158C66.587 52.7935 66.4059 52.3563 66.4059 51.9004V48.4629H62.9684C62.5125 48.4629 62.0754 48.2819 61.753 47.9595C61.4307 47.6372 61.2496 47.2 61.2496 46.7442C61.2496 46.2883 61.4307 45.8512 61.753 45.5288C62.0754 45.2065 62.5125 45.0254 62.9684 45.0254H66.4059V41.5879C66.4059 41.1321 66.587 40.6949 66.9093 40.3726C67.2316 40.0503 67.6688 39.8692 68.1246 39.8692C68.5805 39.8692 69.0176 40.0503 69.34 40.3726C69.6623 40.6949 69.8434 41.1321 69.8434 41.5879V45.0254H73.2809C73.7367 45.0254 74.1739 45.2065 74.4962 45.5288C74.8185 45.8512 74.9996 46.2883 74.9996 46.7442ZM50.9371 51.402C53.6315 49.7239 55.706 47.2139 56.8468 44.2517C57.9875 41.2896 58.1326 38.0365 57.2599 34.9846C56.3872 31.9327 54.5442 29.2481 52.0099 27.3369C49.4756 25.4257 46.3877 24.3918 43.2135 24.3918C40.0393 24.3918 36.9514 25.4257 34.4171 27.3369C31.8827 29.2481 30.0398 31.9327 29.1671 34.9846C28.2944 38.0365 28.4394 41.2896 29.5802 44.2517C30.721 47.2139 32.7955 49.7239 35.4899 51.402C31.0533 52.8543 27.0615 55.5678 23.8518 59.3877C23.6416 59.6375 23.507 59.942 23.4635 60.2655C23.4201 60.589 23.4697 60.9182 23.6065 61.2146C23.7433 61.5109 23.9616 61.7622 24.236 61.939C24.5104 62.1158 24.8295 62.2108 25.1559 62.2129H61.2496C61.5771 62.2133 61.8979 62.12 62.1742 61.9442C62.4505 61.7683 62.6708 61.5172 62.8092 61.2204C62.9475 60.9235 62.9982 60.5933 62.9553 60.2687C62.9123 59.944 62.7775 59.6384 62.5666 59.3877C59.3547 55.5678 55.3629 52.8543 50.9371 51.402Z" fill="white"/>
</g>
<defs>
<linearGradient id="paint0_linear_52_2569" x1="47" y1="0" x2="47" y2="94" gradientUnits="userSpaceOnUse">
<stop stop-color="#355FC6"/>
<stop offset="0.0001" stop-color="#0542D9"/>
<stop offset="1" stop-color="#5300C8"/>
</linearGradient>
<clipPath id="clip0_52_2569">
<rect width="55" height="55" fill="white" transform="translate(20 17.5254)"/>
</clipPath>
</defs>
</svg>
