<svg width="26" height="24" viewBox="0 0 26 24" fill="none" xmlns="http://www.w3.org/2000/svg">
<path d="M23.5 0.867188H2.5C2.03587 0.867188 1.59075 1.10829 1.26256 1.53746C0.934374 1.96663 0.75 2.54871 0.75 3.15565V6.58834C0.75 7.19528 0.934374 7.77736 1.26256 8.20653C1.59075 8.6357 2.03587 8.8768 2.5 8.8768V21.4633C2.5 22.0703 2.68437 22.6524 3.01256 23.0815C3.34075 23.5107 3.78587 23.7518 4.25 23.7518H21.75C22.2141 23.7518 22.6592 23.5107 22.9874 23.0815C23.3156 22.6524 23.5 22.0703 23.5 21.4633V8.8768C23.9641 8.8768 24.4092 8.6357 24.7374 8.20653C25.0656 7.77736 25.25 7.19528 25.25 6.58834V3.15565C25.25 2.54871 25.0656 1.96663 24.7374 1.53746C24.4092 1.10829 23.9641 0.867188 23.5 0.867188ZM21.75 21.4633H4.25V8.8768H21.75V21.4633ZM23.5 6.58834H2.5V3.15565H23.5V6.58834ZM9.5 13.4537C9.5 13.1503 9.59219 12.8592 9.75628 12.6446C9.92038 12.43 10.1429 12.3095 10.375 12.3095H15.625C15.8571 12.3095 16.0796 12.43 16.2437 12.6446C16.4078 12.8592 16.5 13.1503 16.5 13.4537C16.5 13.7572 16.4078 14.0482 16.2437 14.2628C16.0796 14.4774 15.8571 14.598 15.625 14.598H10.375C10.1429 14.598 9.92038 14.4774 9.75628 14.2628C9.59219 14.0482 9.5 13.7572 9.5 13.4537Z" fill="#474545"/>
</svg>
