<svg width="48" height="48" viewBox="0 0 48 48" fill="none" xmlns="http://www.w3.org/2000/svg">
<circle cx="24" cy="24" r="24" fill="#EEEEEE"/>
<g clip-path="url(#clip0_4859_10201)">
<path d="M14.6191 22.3047V36.3649H24.8907V29.6069C24.8907 28.0366 26.1636 26.7637 27.7338 26.7637C29.304 26.7637 30.577 28.0366 30.577 29.6069V36.3649H33.3838V22.3047H14.6191ZM21.9151 28.0487H18.5033C18.0322 28.0487 17.6504 27.6668 17.6504 27.1958C17.6504 26.7247 18.0322 26.3428 18.5033 26.3428H21.9151C22.3861 26.3428 22.768 26.7247 22.768 27.1958C22.768 27.6668 22.3861 28.0487 21.9151 28.0487Z" fill="#00BBB4"/>
<path d="M36.7947 37.2176H11.2065C10.7354 37.2176 10.3535 36.8357 10.3535 36.3647C10.3535 35.8936 10.7354 35.5117 11.2065 35.5117H36.7947C37.2657 35.5117 37.6476 35.8936 37.6476 36.3647C37.6476 36.8357 37.2657 37.2176 36.7947 37.2176Z" fill="#1B75BC"/>
<path d="M14.8104 21.0393C12.2432 21.0393 10.5012 18.4289 11.4864 16.0583L13.681 10.7773H19.3673L18.376 17.9336C18.1294 19.7138 16.6076 21.0393 14.8104 21.0393Z" fill="#F15A29"/>
<path d="M24.132 21.0393H23.8678C21.6834 21.0393 20.0025 19.1095 20.3023 16.9457L21.1568 10.7773H26.843L27.6975 16.9457C27.9973 19.1095 26.3164 21.0393 24.132 21.0393Z" fill="#F15A29"/>
<path d="M33.1917 21.0393C31.3945 21.0393 29.8727 19.7138 29.6261 17.9336L28.6348 10.7773H34.321L36.5157 16.0583C37.5009 18.4289 35.7589 21.0393 33.1917 21.0393Z" fill="#F15A29"/>
</g>
<defs>
<clipPath id="clip0_4859_10201">
<rect width="27.2941" height="27.2941" fill="white" transform="translate(10.3535 10.3516)"/>
</clipPath>
</defs>
</svg>
