<svg width="28" height="25" viewBox="0 0 28 25" fill="none" xmlns="http://www.w3.org/2000/svg">
<path d="M26.75 22.5625H25.6875V1.3125C25.6875 1.03071 25.5756 0.760457 25.3763 0.561199C25.177 0.361942 24.9068 0.25 24.625 0.25H17.1875C16.9057 0.25 16.6355 0.361942 16.4362 0.561199C16.2369 0.760457 16.125 1.03071 16.125 1.3125V6.625H9.75C9.46821 6.625 9.19796 6.73694 8.9987 6.9362C8.79944 7.13546 8.6875 7.40571 8.6875 7.6875V13H3.375C3.09321 13 2.82296 13.1119 2.6237 13.3112C2.42444 13.5105 2.3125 13.7807 2.3125 14.0625V22.5625H1.25C0.968207 22.5625 0.697956 22.6744 0.498699 22.8737C0.299442 23.073 0.1875 23.3432 0.1875 23.625C0.1875 23.9068 0.299442 24.177 0.498699 24.3763C0.697956 24.5756 0.968207 24.6875 1.25 24.6875H26.75C27.0318 24.6875 27.302 24.5756 27.5013 24.3763C27.7006 24.177 27.8125 23.9068 27.8125 23.625C27.8125 23.3432 27.7006 23.073 27.5013 22.8737C27.302 22.6744 27.0318 22.5625 26.75 22.5625ZM18.25 2.375H23.5625V22.5625H18.25V2.375ZM10.8125 8.75H16.125V22.5625H10.8125V8.75ZM4.4375 15.125H8.6875V22.5625H4.4375V15.125Z" fill="white"/>
</svg>
