<svg width="120" height="120" viewBox="0 0 120 120" fill="none" xmlns="http://www.w3.org/2000/svg">
<g clip-path="url(#clip0_4881_8165)">
<path d="M60 120C26.9149 120 0 93.0837 0 60C0 26.9163 26.9149 0 60 0C93.0851 0 120 26.9163 120 60C120 93.0837 93.0851 120 60 120Z" fill="#D7EBFF"/>
<path d="M120 60C120 26.9163 93.0851 0 60 0V120C93.0851 120 120 93.0837 120 60Z" fill="#C4E2FF"/>
<path d="M60.0002 112.172C31.2306 112.172 7.82617 88.7666 7.82617 59.9982C7.82617 31.2298 31.2306 7.82422 60.0002 7.82422C88.7697 7.82422 112.174 31.2301 112.174 59.9982C112.174 88.7663 88.7697 112.172 60.0002 112.172Z" fill="#88CC2A"/>
<path d="M112.174 59.9982C112.174 31.2301 88.7695 7.82422 60 7.82422V112.172C88.7695 112.172 112.174 88.7663 112.174 59.9982Z" fill="#7FB335"/>
<path d="M54.7823 83.4788C52.7798 83.4788 50.7775 82.7145 49.2489 81.1859L33.123 65.0599C30.0658 62.0041 30.0658 57.0492 33.123 53.9932C36.1802 50.936 41.1325 50.936 44.1897 53.9932L54.7823 64.5846L77.114 42.2538C80.1712 39.1966 85.1235 39.1966 88.1807 42.2538C91.2379 45.3096 91.2379 50.2645 88.1807 53.3205L60.3156 81.1859C58.7873 82.7145 56.7848 83.4788 54.7823 83.4788Z" fill="white"/>
<path d="M77.1143 42.2539L60 59.3672V81.4435C60.102 81.3514 60.2175 81.2839 60.3159 81.1854L88.181 53.3203C91.2382 50.2646 91.2382 45.3096 88.181 42.2536C85.1241 39.1967 80.1715 39.1967 77.1143 42.2539Z" fill="#EDF0F2"/>
</g>
<defs>
<clipPath id="clip0_4881_8165">
<rect width="120" height="120" fill="white"/>
</clipPath>
</defs>
</svg>
