<svg width="36" height="36" viewBox="0 0 36 36" fill="none" xmlns="http://www.w3.org/2000/svg">
<path d="M28.9969 35.2687H7.1438C6.6938 35.2687 6.2438 35.1844 5.82192 35.0156C5.42817 34.8469 5.06255 34.5937 4.75317 34.2844C4.4438 33.975 4.19067 33.6094 4.02192 33.2156C3.85317 32.7937 3.7688 32.3719 3.7688 31.8937V9.14062C3.7688 8.69062 3.85317 8.24062 4.02192 7.81875C4.19067 7.425 4.4438 7.05937 4.75317 6.75C5.06255 6.44062 5.42817 6.1875 5.82192 6.01875C6.2438 5.85 6.66567 5.76562 7.1438 5.76562H10.4625V7.45312H7.1438C6.21567 7.45312 5.4563 8.2125 5.4563 9.14062V31.8937C5.4563 32.8219 6.21567 33.5812 7.1438 33.5812H28.9969C29.9251 33.5812 30.6844 32.8219 30.6844 31.8937V9.14062C30.6844 8.2125 29.9251 7.45312 28.9969 7.45312H25.6782V5.76562H28.9688C29.4188 5.76562 29.8688 5.85 30.2907 6.01875C30.6844 6.1875 31.0501 6.44062 31.3594 6.75C31.6688 7.05937 31.9219 7.425 32.0907 7.81875C32.2594 8.24062 32.3438 8.6625 32.3438 9.14062V31.8937C32.3438 32.3437 32.2594 32.7937 32.0907 33.2156C31.9219 33.6094 31.6688 33.975 31.3594 34.2844C31.0501 34.5937 30.6844 34.8469 30.2907 35.0156C29.8969 35.1844 29.4469 35.2687 28.9969 35.2687Z" fill="#FF7A00"/>
<path d="M26.4656 10.8281H9.6469V5.37188C9.6469 4.21875 10.575 3.2625 11.7563 3.2625H13.9219C14.7094 1.71563 16.2844 0.703125 18.0563 0.703125C19.8281 0.703125 21.4031 1.71563 22.1906 3.2625H24.3563C25.5094 3.2625 26.4656 4.19063 26.4656 5.37188V10.8281ZM11.3344 9.14062H24.7781V5.37188C24.7781 5.14687 24.5813 4.95 24.3563 4.95H21.0375L20.8406 4.3875C20.4188 3.20625 19.3219 2.41875 18.0563 2.41875C16.7906 2.41875 15.6938 3.20625 15.2719 4.3875L15.075 4.95H11.7563C11.5313 4.95 11.3344 5.14687 11.3344 5.37188V9.14062ZM15.2156 27.8438C14.9906 27.8438 14.7938 27.7594 14.625 27.5906L8.88752 21.8531C8.71877 21.6844 8.6344 21.4875 8.6344 21.2625C8.6344 21.0375 8.71877 20.8406 8.88752 20.6719C9.05627 20.5031 9.25315 20.4187 9.47815 20.4187C9.70315 20.4187 9.90002 20.5031 10.0688 20.6719L14.7094 25.3125C14.85 25.4531 15.0188 25.5094 15.1875 25.5094C15.3563 25.5094 15.5531 25.4531 15.6656 25.3125L26.0438 14.9344C26.2125 14.7656 26.4094 14.6813 26.6344 14.6813C26.8594 14.6813 27.0563 14.7656 27.225 14.9344C27.5625 15.2719 27.5625 15.7781 27.225 16.1156L15.8063 27.5906C15.6375 27.7312 15.4125 27.8438 15.2156 27.8438Z" fill="#FF7A00"/>
</svg>
