<svg width="28" height="22" viewBox="0 0 28 22" fill="none" xmlns="http://www.w3.org/2000/svg">
<path d="M26.75 0.375H1.25C0.968207 0.375 0.697956 0.486942 0.498699 0.686199C0.299442 0.885457 0.1875 1.15571 0.1875 1.4375V19.5C0.1875 20.0636 0.411383 20.6041 0.809898 21.0026C1.20841 21.4011 1.74891 21.625 2.3125 21.625H25.6875C26.2511 21.625 26.7916 21.4011 27.1901 21.0026C27.5886 20.6041 27.8125 20.0636 27.8125 19.5V1.4375C27.8125 1.15571 27.7006 0.885457 27.5013 0.686199C27.302 0.486942 27.0318 0.375 26.75 0.375ZM14 11.684L3.98195 2.5H24.018L14 11.684ZM10.1099 11L2.3125 18.1466V3.85336L10.1099 11ZM11.6824 12.441L13.2762 13.9086C13.4722 14.0885 13.7286 14.1884 13.9947 14.1884C14.2608 14.1884 14.5172 14.0885 14.7132 13.9086L16.307 12.441L24.0101 19.5H3.98195L11.6824 12.441ZM17.8901 11L25.6875 3.85203V18.148L17.8901 11Z" fill="white"/>
</svg>
