<svg width="64" height="64" viewBox="0 0 64 64" fill="none" xmlns="http://www.w3.org/2000/svg">
<path d="M48.5762 4.62795C43.8397 1.75957 38.4399 0.169365 32.9048 0.0127966C27.3697 -0.143771 21.8887 1.13866 16.9976 3.7347C12.1065 6.33075 7.97277 10.1516 5.00054 14.8236C2.0283 19.4956 0.319285 24.859 0.0405681 30.3893C-0.238149 35.9196 0.922973 41.4276 3.41042 46.3748C5.89786 51.322 9.62649 55.5391 14.2318 58.6137C18.8371 61.6884 24.1614 63.5154 29.6842 63.9161C35.207 64.3168 40.7393 63.2776 45.7402 60.8999C46.673 60.4297 47.3848 59.6132 47.7234 58.625C48.0621 57.6368 48.0007 56.5553 47.5525 55.6117C47.1042 54.6682 46.3046 53.9374 45.3246 53.5757C44.3446 53.2139 43.262 53.2499 42.3082 53.6759C38.0148 55.7182 33.2116 56.4393 28.5077 55.7477C23.8039 55.0562 19.4115 52.9831 15.8876 49.7915C12.3637 46.5998 9.86715 42.4335 8.71463 37.8209C7.56211 33.2083 7.80555 28.3573 9.41406 23.8833C11.0226 19.4093 13.9237 15.5138 17.7494 12.691C21.5751 9.86818 26.153 8.24525 30.9024 8.02807C35.6519 7.81088 40.3588 9.00922 44.4262 11.4711C48.4935 13.9329 51.7381 17.5474 53.7482 21.8559C54.1964 22.8182 55.0085 23.5629 56.0058 23.9263C57.0032 24.2898 58.104 24.2422 59.0662 23.7939C60.0284 23.3457 60.7732 22.5336 61.1366 21.5363C61.5 20.539 61.4524 19.4382 61.0042 18.4759C58.3247 12.7308 53.9991 7.91104 48.5762 4.62795Z" fill="#F97066"/>
<path d="M28.0002 20C28.0002 18.9391 28.4216 17.9217 29.1718 17.1716C29.9219 16.4214 30.9393 16 32.0002 16C33.0611 16 34.0785 16.4214 34.8286 17.1716C35.5788 17.9217 36.0002 18.9391 36.0002 20V36C35.9998 36.7426 35.7927 37.4705 35.402 38.1021C35.0113 38.7337 34.4525 39.244 33.7882 39.576L25.7882 43.576C25.3167 43.8303 24.7989 43.9872 24.2656 44.0376C23.7323 44.0879 23.1943 44.0306 22.6835 43.8691C22.1728 43.7076 21.6997 43.4451 21.2923 43.0973C20.8849 42.7494 20.5515 42.3233 20.3119 41.8441C20.0724 41.365 19.9315 40.8426 19.8976 40.308C19.8638 39.7734 19.9377 39.2374 20.1149 38.7319C20.2921 38.2264 20.5691 37.7616 20.9294 37.3651C21.2897 36.9687 21.7259 36.6486 22.2122 36.424L28.0002 33.528V20ZM64.0002 60C64.0002 61.0609 63.5788 62.0783 62.8286 62.8284C62.0785 63.5786 61.0611 64 60.0002 64C58.9393 64 57.9219 63.5786 57.1718 62.8284C56.4216 62.0783 56.0002 61.0609 56.0002 60C56.0002 58.9391 56.4216 57.9217 57.1718 57.1716C57.9219 56.4214 58.9393 56 60.0002 56C61.0611 56 62.0785 56.4214 62.8286 57.1716C63.5788 57.9217 64.0002 58.9391 64.0002 60ZM60.0002 32C58.9393 32 57.9219 32.4214 57.1718 33.1716C56.4216 33.9217 56.0002 34.9391 56.0002 36V48C56.0002 49.0609 56.4216 50.0783 57.1718 50.8284C57.9219 51.5786 58.9393 52 60.0002 52C61.0611 52 62.0785 51.5786 62.8286 50.8284C63.5788 50.0783 64.0002 49.0609 64.0002 48V36C64.0002 34.9391 63.5788 33.9217 62.8286 33.1716C62.0785 32.4214 61.0611 32 60.0002 32Z" fill="#F97066"/>
</svg>
