<svg width="44" height="32" viewBox="0 0 44 32" fill="none" xmlns="http://www.w3.org/2000/svg">
<path d="M4.23249 1.625L22 14.2319L39.7675 1.625C39.9991 1.47639 40.2685 1.39739 40.5437 1.39739C40.8189 1.39739 41.0884 1.47639 41.32 1.625C40.3117 0.746921 39.0336 0.239737 37.6975 0.1875H6.30249C4.98389 0.199255 3.70772 0.65503 2.67999 1.48125C2.92518 1.35334 3.20206 1.29886 3.47742 1.32436C3.75279 1.34986 4.01496 1.45424 4.23249 1.625Z" fill="#75CEDE"/>
<path d="M41.4925 1.625C41.5973 1.70117 41.6895 1.79334 41.7656 1.89813C41.9853 2.20741 42.0739 2.59101 42.0119 2.9653C41.95 3.33959 41.7426 3.67422 41.435 3.89625L22.8337 17.1644C22.5903 17.3377 22.2989 17.4309 22 17.4309C21.7011 17.4309 21.4097 17.3377 21.1663 17.1644L2.565 3.88188C2.25737 3.65985 2.04999 3.32522 1.98806 2.95092C1.92612 2.57663 2.01466 2.19303 2.23438 1.88375C2.31168 1.78407 2.40379 1.69681 2.5075 1.625C1.86439 2.17074 1.34656 2.84878 0.989332 3.61285C0.632103 4.37693 0.443879 5.20906 0.4375 6.0525V25.9475C0.4375 27.503 1.05542 28.9948 2.15532 30.0947C3.25522 31.1946 4.74701 31.8125 6.3025 31.8125H37.6975C39.253 31.8125 40.7448 31.1946 41.8447 30.0947C42.9446 28.9948 43.5625 27.503 43.5625 25.9475V6.0525C43.5561 5.20906 43.3679 4.37693 43.0107 3.61285C42.6534 2.84878 42.1356 2.17074 41.4925 1.625ZM18.8088 20.0394L4.2325 30.4469C3.98984 30.6226 3.69834 30.7181 3.39875 30.72C3.17069 30.7189 2.94615 30.6636 2.74369 30.5587C2.54123 30.4537 2.36665 30.302 2.23438 30.1162C2.01466 29.807 1.92612 29.4234 1.98806 29.0491C2.04999 28.6748 2.25737 28.3402 2.565 28.1181L17.1413 17.7106C17.4507 17.5273 17.8177 17.4667 18.1697 17.5408C18.5217 17.6148 18.8331 17.8181 19.0425 18.1106C19.252 18.403 19.3441 18.7634 19.3008 19.1205C19.2576 19.4775 19.082 19.8054 18.8088 20.0394ZM41.8088 30.1019C41.6765 30.2877 41.5019 30.4393 41.2994 30.5443C41.097 30.6493 40.8724 30.7046 40.6444 30.7056C40.3448 30.7037 40.0533 30.6082 39.8106 30.4325L25.1912 20.0394C25.0198 19.9378 24.8713 19.8017 24.7553 19.6398C24.6392 19.4778 24.5581 19.2934 24.5171 19.0984C24.476 18.9034 24.476 18.702 24.517 18.507C24.5579 18.312 24.639 18.1276 24.755 17.9656C24.871 17.8036 25.0195 17.6675 25.1909 17.5659C25.3623 17.4643 25.553 17.3994 25.7508 17.3755C25.9486 17.3515 26.1493 17.3689 26.34 17.4266C26.5307 17.4843 26.7074 17.581 26.8587 17.7106L41.435 28.1181C41.7426 28.3402 41.95 28.6748 42.0119 29.0491C42.0739 29.4234 41.9853 29.807 41.7656 30.1162L41.8088 30.1019Z" fill="#00A6BC"/>
</svg>
