<svg width="28" height="28" viewBox="0 0 28 28" fill="none" xmlns="http://www.w3.org/2000/svg">
<path d="M15.5938 14.0021C15.5938 14.3174 15.5003 14.6255 15.3252 14.8876C15.15 15.1497 14.9011 15.354 14.6099 15.4746C14.3187 15.5952 13.9982 15.6268 13.6891 15.5653C13.3799 15.5038 13.0959 15.352 12.873 15.1291C12.6502 14.9062 12.4984 14.6222 12.4369 14.3131C12.3754 14.0039 12.4069 13.6835 12.5276 13.3922C12.6482 13.101 12.8525 12.8521 13.1146 12.677C13.3767 12.5019 13.6848 12.4084 14 12.4084C14.4227 12.4084 14.8281 12.5763 15.127 12.8752C15.4258 13.1741 15.5938 13.5795 15.5938 14.0021ZM8.15625 12.4084C7.84104 12.4084 7.5329 12.5019 7.27081 12.677C7.00872 12.8521 6.80444 13.101 6.68382 13.3922C6.56319 13.6835 6.53163 14.0039 6.59312 14.3131C6.65462 14.6222 6.80641 14.9062 7.0293 15.1291C7.25219 15.352 7.53617 15.5038 7.84532 15.5653C8.15448 15.6268 8.47493 15.5952 8.76615 15.4746C9.05737 15.354 9.30628 15.1497 9.48141 14.8876C9.65653 14.6255 9.75 14.3174 9.75 14.0021C9.75 13.5795 9.58209 13.1741 9.2832 12.8752C8.98432 12.5763 8.57894 12.4084 8.15625 12.4084ZM19.8438 12.4084C19.5285 12.4084 19.2204 12.5019 18.9583 12.677C18.6962 12.8521 18.4919 13.101 18.3713 13.3922C18.2507 13.6835 18.2191 14.0039 18.2806 14.3131C18.3421 14.6222 18.4939 14.9062 18.7168 15.1291C18.9397 15.352 19.2237 15.5038 19.5328 15.5653C19.842 15.6268 20.1624 15.5952 20.4537 15.4746C20.7449 15.354 20.9938 15.1497 21.1689 14.8876C21.344 14.6255 21.4375 14.3174 21.4375 14.0021C21.4375 13.5795 21.2696 13.1741 20.9707 12.8752C20.6718 12.5763 20.2664 12.4084 19.8438 12.4084ZM27.8125 14.0021C27.813 16.3868 27.1961 18.731 26.0219 20.8066C24.8476 22.8821 23.156 24.6183 21.1117 25.8461C19.0674 27.074 16.74 27.7516 14.3561 27.8131C11.9722 27.8746 9.61301 27.3178 7.50812 26.197L2.98586 27.7044C2.61144 27.8293 2.20965 27.8474 1.82551 27.7567C1.44138 27.6661 1.09008 27.4702 0.81099 27.1912C0.531903 26.9121 0.336057 26.5608 0.245403 26.1766C0.154749 25.7925 0.17287 25.3907 0.297734 25.0163L1.80516 20.494C0.819885 18.6416 0.269574 16.5891 0.195996 14.4922C0.122419 12.3953 0.527507 10.3093 1.38051 8.39232C2.23352 6.47539 3.51203 4.77798 5.11898 3.42893C6.72594 2.07988 8.61912 1.11466 10.6548 0.606512C12.6905 0.0983693 14.8152 0.0606678 16.8676 0.496269C18.9201 0.93187 20.8463 1.82933 22.5001 3.12051C24.1539 4.4117 25.4918 6.06269 26.4123 7.94815C27.3328 9.83361 27.8116 11.904 27.8125 14.0021ZM25.6875 14.0021C25.687 12.2093 25.274 10.4407 24.4806 8.83301C23.6872 7.22533 22.5345 5.82174 21.1119 4.73082C19.6892 3.63989 18.0346 2.89088 16.2761 2.54174C14.5176 2.1926 12.7024 2.25268 10.9709 2.71733C9.23931 3.18199 7.63787 4.03876 6.29044 5.22137C4.943 6.40398 3.88569 7.88072 3.2003 9.53734C2.51491 11.194 2.21982 12.9861 2.33786 14.775C2.4559 16.5639 2.9839 18.3017 3.88102 19.8539C3.95631 19.9842 4.00306 20.129 4.01817 20.2787C4.03328 20.4285 4.01641 20.5797 3.96867 20.7225L2.3125 25.6896L7.27969 24.0335C7.38788 23.9966 7.5014 23.9777 7.6157 23.9777C7.80231 23.978 7.98554 24.0275 8.14695 24.1211C9.92372 25.1491 11.9399 25.691 13.9926 25.6923C16.0453 25.6936 18.0622 25.1543 19.8403 24.1285C21.6183 23.1028 23.0949 21.6268 24.1213 19.8492C25.1478 18.0715 25.688 16.0549 25.6875 14.0021Z" fill="white"/>
</svg>
