<svg width="94" height="94" viewBox="0 0 94 94" fill="none" xmlns="http://www.w3.org/2000/svg">
<circle cx="47" cy="47" r="47" fill="url(#paint0_linear_52_2574)"/>
<path d="M47.5 23.1563C43.6424 23.1554 39.8503 24.1533 36.4928 26.0528C33.1353 27.9524 30.3268 30.6888 28.3406 33.9958C26.3544 37.3027 25.2583 41.0676 25.1588 44.9239C25.0593 48.7802 25.96 52.5966 27.773 56.0016L25.3346 63.317C25.1326 63.9227 25.1033 64.5726 25.2499 65.194C25.3966 65.8154 25.7134 66.3837 26.1648 66.8352C26.6163 67.2866 27.1846 67.6034 27.806 67.7501C28.4274 67.8967 29.0773 67.8674 29.683 67.6654L36.9984 65.227C39.995 66.8208 43.3153 67.711 46.7073 67.83C50.0993 67.949 53.4738 67.2937 56.5747 65.9139C59.6756 64.534 62.4214 62.4658 64.6037 59.8663C66.786 57.2669 68.3474 54.2044 69.1694 50.9113C69.9914 47.6183 70.0524 44.1813 69.3477 40.8612C68.6431 37.5411 67.1913 34.4251 65.1026 31.7498C63.014 29.0745 60.3432 26.9103 57.2932 25.4212C54.2432 23.9322 50.8941 23.1576 47.5 23.1563ZM38.0469 48.0781C37.537 48.0781 37.0385 47.9269 36.6145 47.6436C36.1906 47.3603 35.8601 46.9577 35.665 46.4866C35.4699 46.0155 35.4188 45.4971 35.5183 44.997C35.6178 44.4969 35.8633 44.0375 36.2239 43.677C36.5844 43.3164 37.0438 43.0709 37.5439 42.9714C38.044 42.8719 38.5624 42.923 39.0335 43.1181C39.5046 43.3133 39.9072 43.6437 40.1905 44.0677C40.4738 44.4916 40.625 44.9901 40.625 45.5C40.625 46.1838 40.3534 46.8395 39.8699 47.323C39.3864 47.8065 38.7306 48.0781 38.0469 48.0781ZM47.5 48.0781C46.9901 48.0781 46.4916 47.9269 46.0677 47.6436C45.6437 47.3603 45.3132 46.9577 45.1181 46.4866C44.923 46.0155 44.8719 45.4971 44.9714 44.997C45.0709 44.4969 45.3164 44.0375 45.677 43.677C46.0375 43.3164 46.4969 43.0709 46.997 42.9714C47.4971 42.8719 48.0155 42.923 48.4866 43.1181C48.9577 43.3133 49.3603 43.6437 49.6436 44.0677C49.9269 44.4916 50.0781 44.9901 50.0781 45.5C50.0781 46.1838 49.8065 46.8395 49.323 47.323C48.8395 47.8065 48.1838 48.0781 47.5 48.0781ZM56.9531 48.0781C56.4432 48.0781 55.9448 47.9269 55.5208 47.6436C55.0968 47.3603 54.7664 46.9577 54.5712 46.4866C54.3761 46.0155 54.3251 45.4971 54.4245 44.997C54.524 44.4969 54.7696 44.0375 55.1301 43.677C55.4907 43.3164 55.95 43.0709 56.4502 42.9714C56.9503 42.8719 57.4686 42.923 57.9397 43.1181C58.4108 43.3133 58.8135 43.6437 59.0968 44.0677C59.38 44.4916 59.5312 44.9901 59.5312 45.5C59.5312 46.1838 59.2596 46.8395 58.7761 47.323C58.2926 47.8065 57.6369 48.0781 56.9531 48.0781Z" fill="white"/>
<defs>
<linearGradient id="paint0_linear_52_2574" x1="47" y1="0" x2="47" y2="94" gradientUnits="userSpaceOnUse">
<stop stop-color="#355FC6"/>
<stop offset="0.0001" stop-color="#0542D9"/>
<stop offset="1" stop-color="#5300C8"/>
</linearGradient>
</defs>
</svg>
