<svg width="32" height="24" viewBox="0 0 32 24" fill="none" xmlns="http://www.w3.org/2000/svg">
<path d="M31.5125 13.9739C31.4009 14.0576 31.2739 14.1185 31.1387 14.1531C31.0035 14.1877 30.8629 14.1954 30.7247 14.1757C30.5866 14.1559 30.4537 14.1092 30.3337 14.0381C30.2136 13.967 30.1087 13.873 30.025 13.7614C29.3846 12.9005 28.551 12.2021 27.5914 11.7223C26.6318 11.2425 25.5729 10.9947 24.5 10.9989C24.2911 10.9988 24.0868 10.9372 23.9127 10.8217C23.7386 10.7062 23.6024 10.5419 23.5212 10.3494C23.466 10.2187 23.4376 10.0782 23.4376 9.93635C23.4376 9.79447 23.466 9.65403 23.5212 9.52331C23.6024 9.3308 23.7386 9.16652 23.9127 9.05101C24.0868 8.93549 24.2911 8.87387 24.5 8.87385C25.0962 8.8738 25.6804 8.70656 26.1862 8.39113C26.6921 8.07571 27.0994 7.62473 27.3618 7.08944C27.6242 6.55414 27.7313 5.95598 27.6708 5.3629C27.6103 4.76982 27.3847 4.20559 27.0196 3.73431C26.6545 3.26302 26.1645 2.90356 25.6054 2.69677C25.0463 2.48997 24.4403 2.44413 23.8564 2.56444C23.2726 2.68475 22.7341 2.9664 22.3023 3.3774C21.8704 3.78839 21.5625 4.31225 21.4134 4.88948C21.3786 5.02465 21.3174 5.15162 21.2334 5.26315C21.1495 5.37468 21.0444 5.46859 20.9241 5.5395C20.8039 5.61041 20.6709 5.65695 20.5326 5.67645C20.3944 5.69595 20.2537 5.68803 20.1185 5.65315C19.9834 5.61827 19.8564 5.5571 19.7448 5.47315C19.6333 5.38919 19.5394 5.2841 19.4685 5.16385C19.3976 5.04361 19.351 4.91057 19.3316 4.77234C19.312 4.63411 19.32 4.4934 19.3548 4.35823C19.5617 3.55779 19.9525 2.81667 20.4962 2.19385C21.0399 1.57103 21.7215 1.0837 22.4866 0.770631C23.2518 0.457562 24.0795 0.327398 24.9038 0.390496C25.7281 0.453593 26.5264 0.70821 27.235 1.13409C27.9436 1.55997 28.543 2.14535 28.9856 2.84366C29.4282 3.54197 29.7016 4.33393 29.7843 5.15653C29.8669 5.97914 29.7564 6.80967 29.4616 7.58205C29.1667 8.35443 28.6957 9.04734 28.0859 9.60565C29.5307 10.2312 30.7866 11.2239 31.729 12.485C31.8127 12.5969 31.8735 12.7243 31.9079 12.8597C31.9424 12.9951 31.9498 13.1361 31.9296 13.2744C31.9095 13.4127 31.8623 13.5456 31.7908 13.6657C31.7192 13.7857 31.6246 13.8904 31.5125 13.9739ZM24.3566 22.1551C24.4334 22.276 24.4851 22.4113 24.5083 22.5527C24.5316 22.6941 24.526 22.8387 24.4919 22.9779C24.4578 23.1171 24.3959 23.2479 24.3099 23.3626C24.224 23.4772 24.1157 23.5733 23.9916 23.645C23.8676 23.7167 23.7303 23.7626 23.588 23.7799C23.4458 23.7971 23.3015 23.7855 23.1639 23.7455C23.0263 23.7056 22.8981 23.6383 22.7872 23.5475C22.6763 23.4568 22.5849 23.3446 22.5184 23.2176C21.8491 22.0843 20.8959 21.145 19.7528 20.4926C18.6097 19.8401 17.3162 19.4969 16 19.4969C14.6838 19.4969 13.3903 19.8401 12.2472 20.4926C11.1041 21.145 10.1509 22.0843 9.48157 23.2176C9.41515 23.3446 9.32373 23.4568 9.21281 23.5475C9.10189 23.6383 8.97376 23.7056 8.83614 23.7455C8.69852 23.7855 8.55424 23.7971 8.41198 23.7799C8.26973 23.7626 8.13245 23.7167 8.00838 23.645C7.88432 23.5733 7.77604 23.4772 7.69007 23.3626C7.6041 23.2479 7.5422 23.1171 7.50811 22.9779C7.47402 22.8387 7.46843 22.6941 7.49169 22.5527C7.51495 22.4113 7.56657 22.276 7.64344 22.1551C8.67354 20.3852 10.2442 18.9924 12.1245 18.1814C11.0665 17.3712 10.2888 16.2499 9.90099 14.975C9.51314 13.7001 9.53456 12.3357 9.96224 11.0736C10.3899 9.81153 11.2023 8.71518 12.2853 7.93869C13.3683 7.16219 14.6674 6.7446 16 6.7446C17.3326 6.7446 18.6317 7.16219 19.7147 7.93869C20.7977 8.71518 21.6101 9.81153 22.0378 11.0736C22.4655 12.3357 22.4869 13.7001 22.099 14.975C21.7112 16.2499 20.9336 17.3712 19.8755 18.1814C21.7558 18.9924 23.3265 20.3852 24.3566 22.1551ZM16 17.3739C16.8406 17.3739 17.6623 17.1246 18.3612 16.6576C19.0601 16.1906 19.6048 15.5268 19.9265 14.7503C20.2482 13.9737 20.3323 13.1191 20.1683 12.2947C20.0044 11.4703 19.5996 10.713 19.0052 10.1186C18.4108 9.52428 17.6536 9.1195 16.8291 8.95551C16.0047 8.79153 15.1502 8.87569 14.3736 9.19736C13.597 9.51904 12.9333 10.0638 12.4663 10.7627C11.9993 11.4616 11.75 12.2833 11.75 13.1239C11.75 14.251 12.1978 15.332 12.9948 16.1291C13.7918 16.9261 14.8728 17.3739 16 17.3739ZM8.56251 9.93635C8.56251 9.65456 8.45056 9.38431 8.25131 9.18505C8.05205 8.9858 7.7818 8.87385 7.50001 8.87385C6.90385 8.8738 6.31965 8.70656 5.81378 8.39113C5.3079 8.07571 4.90062 7.62473 4.6382 7.08944C4.37579 6.55414 4.26874 5.95598 4.32924 5.3629C4.38973 4.76982 4.61534 4.20559 4.98043 3.73431C5.34552 3.26302 5.83546 2.90356 6.39461 2.69677C6.95375 2.48997 7.55968 2.44413 8.14357 2.56444C8.72746 2.68475 9.26591 2.9664 9.69775 3.3774C10.1296 3.78839 10.4375 4.31225 10.5866 4.88948C10.657 5.16246 10.833 5.39629 11.0759 5.5395C11.3187 5.68272 11.6085 5.7236 11.8815 5.65315C12.1545 5.5827 12.3883 5.4067 12.5315 5.16385C12.6747 4.92101 12.7156 4.63121 12.6452 4.35823C12.4383 3.55779 12.0475 2.81667 11.5038 2.19385C10.9601 1.57103 10.2786 1.0837 9.51338 0.770631C8.74821 0.457562 7.92053 0.327398 7.0962 0.390496C6.27187 0.453593 5.47364 0.70821 4.76503 1.13409C4.05642 1.55997 3.45699 2.14535 3.01442 2.84366C2.57186 3.54197 2.29838 4.33393 2.21575 5.15653C2.13312 5.97914 2.24362 6.80967 2.53846 7.58205C2.83329 8.35443 3.30432 9.04734 3.91407 9.60565C2.47077 10.2318 1.21627 11.2244 0.275006 12.485C0.105755 12.7105 0.0329883 12.9939 0.0727153 13.273C0.112442 13.5521 0.261408 13.8039 0.486842 13.9732C0.712276 14.1424 0.995712 14.2152 1.2748 14.1755C1.55388 14.1358 1.80575 13.9868 1.97501 13.7614C2.61541 12.9005 3.44898 12.2021 4.40861 11.7223C5.36824 11.2425 6.42712 10.9947 7.50001 10.9989C7.7818 10.9989 8.05205 10.8869 8.25131 10.6877C8.45056 10.4884 8.56251 10.2181 8.56251 9.93635Z" fill="white"/>
</svg>
